<svg xmlns="http://www.w3.org/2000/svg" xmlns:xlink="http://www.w3.org/1999/xlink" preserveAspectRatio="xMidYMid" width="150" height="30" viewBox="0 0 150 30">
  <defs>
    <style>
      .cls-1 {
        fill: #ec118f;
      }

      .cls-1, .cls-2 {
        fill-rule: evenodd;
      }

      .cls-2 {
        fill: #fff;
      }
    </style>
  </defs>
  <g>
    <path d="M28.824,25.992 C28.233,25.992 27.301,25.517 26.864,24.948 L17.007,11.714 L16.945,11.714 L16.945,23.523 C16.945,25.105 15.949,25.992 14.612,25.992 C13.275,25.992 12.280,25.105 12.280,23.523 L12.280,5.542 C12.280,3.959 13.275,3.073 14.612,3.073 C15.202,3.073 16.167,3.548 16.571,4.118 L26.429,17.509 L26.491,17.509 L26.491,5.542 C26.491,3.959 27.487,3.073 28.824,3.073 C30.161,3.073 31.157,3.959 31.157,5.542 L31.157,23.523 C31.157,25.105 30.161,25.992 28.824,25.992 ZM7.336,25.992 C5.999,25.992 5.003,25.105 5.003,23.523 L5.003,5.542 C5.003,3.959 5.999,3.073 7.336,3.073 C8.673,3.073 9.668,3.959 9.668,5.542 L9.668,23.523 C9.668,25.105 8.673,25.992 7.336,25.992 Z" class="cls-1"/>
    <path d="M138.954,16.328 L144.356,22.007 C144.801,22.475 144.992,22.943 144.992,23.381 C144.992,24.597 144.007,25.782 142.608,25.782 C142.036,25.782 141.273,25.565 140.765,24.970 L133.710,16.579 L133.647,16.579 L133.647,23.348 C133.647,24.908 132.630,25.782 131.263,25.782 C129.897,25.782 128.879,24.908 128.879,23.348 L128.879,5.815 C128.879,4.317 129.739,3.381 131.326,3.381 L136.920,3.381 C141.814,3.381 144.834,5.534 144.834,10.432 C144.834,13.865 142.196,15.829 138.954,16.328 ZM136.920,7.688 L133.647,7.688 L133.647,13.208 L136.920,13.208 C138.668,13.208 139.875,12.178 139.875,10.432 C139.875,8.654 138.668,7.688 136.920,7.688 ZM124.815,21.288 C126.339,21.288 127.069,22.351 127.069,23.441 C127.069,24.502 126.307,25.595 124.815,25.595 L116.615,25.595 C115.217,25.595 114.168,24.659 114.168,23.254 L114.168,6.095 C114.168,4.535 114.963,3.381 116.647,3.381 L124.528,3.381 C126.053,3.381 126.784,4.442 126.784,5.534 C126.784,6.594 126.022,7.688 124.528,7.688 L118.934,7.688 L118.934,12.242 L124.147,12.242 C125.703,12.242 126.467,13.303 126.467,14.393 C126.467,15.454 125.672,16.548 124.147,16.548 L118.934,16.548 L118.934,21.288 L124.815,21.288 ZM112.645,23.629 C112.645,25.096 111.470,25.782 110.166,25.782 C109.245,25.782 108.641,25.252 107.751,24.315 L99.521,15.580 L99.521,23.536 C99.521,24.753 98.568,25.782 97.137,25.782 C95.771,25.782 94.754,24.908 94.754,23.536 L94.754,5.502 C94.754,4.224 95.707,3.194 97.137,3.194 C98.503,3.194 99.521,4.067 99.521,5.502 L99.521,12.242 L107.337,4.067 C107.688,3.693 108.292,3.194 109.182,3.194 C110.389,3.194 111.533,4.098 111.533,5.440 C111.533,6.252 111.025,6.907 109.975,7.937 L103.970,13.738 L111.310,21.259 C112.072,22.007 112.645,22.693 112.645,23.629 ZM91.070,25.782 C89.735,25.782 89.068,25.096 88.751,24.160 L87.798,21.226 L78.964,21.226 L78.009,24.128 C77.690,25.096 77.025,25.782 75.721,25.782 C74.450,25.782 73.369,24.846 73.369,23.599 C73.369,23.099 73.528,22.724 73.591,22.568 L79.980,5.596 C80.519,4.160 81.760,3.006 83.380,3.006 C85.064,3.006 86.239,4.098 86.780,5.596 L93.008,22.568 C93.200,23.068 93.263,23.505 93.263,23.723 C93.263,24.939 92.246,25.782 91.070,25.782 ZM83.412,7.873 L83.348,7.873 L80.329,16.923 L86.367,16.923 L83.412,7.873 ZM69.495,25.782 C68.129,25.782 67.111,24.908 67.111,23.348 L67.111,16.548 L57.133,16.548 L57.133,23.348 C57.133,24.908 56.116,25.782 54.749,25.782 C53.383,25.782 52.367,24.908 52.367,23.348 L52.367,5.627 C52.367,4.067 53.383,3.194 54.749,3.194 C56.116,3.194 57.133,4.067 57.133,5.627 L57.133,12.242 L67.111,12.242 L67.111,5.627 C67.111,4.067 68.129,3.194 69.495,3.194 C70.862,3.194 71.879,4.067 71.879,5.627 L71.879,23.348 C71.879,24.908 70.862,25.782 69.495,25.782 ZM42.199,25.969 C39.752,25.969 34.477,25.409 34.477,22.475 C34.477,21.259 35.304,20.260 36.606,20.260 C38.100,20.260 39.880,21.477 41.945,21.477 C44.042,21.477 45.186,20.322 45.186,18.794 C45.186,15.112 34.572,17.327 34.572,10.088 C34.572,5.720 38.226,3.006 42.453,3.006 C44.233,3.006 48.682,3.662 48.682,6.127 C48.682,7.342 47.856,8.436 46.552,8.436 C45.251,8.436 44.233,7.499 42.327,7.499 C40.961,7.499 39.720,8.217 39.720,9.528 C39.720,12.740 50.334,10.682 50.334,18.731 C50.334,23.193 46.585,25.969 42.199,25.969 Z" class="cls-2"/>
  </g>
</svg>
